<svg xmlns="http://www.w3.org/2000/svg" width="24" height="24" viewBox="0 0 24 24"><symbol id="windows" viewBox="0 0 24 24"><path d="M0 12v-8.646l10-1.355v10.001h-10zm11 0h13v-12l-13 1.807v10.193zm-1 1h-10v7.646l10 1.355v-9.001zm1 0v9.194l13 1.806v-11h-13z"/></symbol><symbol id="building" viewBox="0 0 24 24"><path d="M9 20h-3v3h-4v-8.766l5.698-4.921 1.711 1.384 6.591-5.697 6 5.236v12.764h-5v-4h-3v4h-5v-3zm-2-5h-2v2h2v-2zm3 0h-2v2h2v-2zm5-1h-2v2h2v-2zm3 0h-2v2h2v-2zm-8.642-7.253l6.642-5.747 8 7-1.329 1.495-6.671-5.819-6.624 5.738-1.678-1.414-6.369 5.495-1.329-1.495 7.698-6.676 1.66 1.423zm5.642 4.253h-2v2h2v-2zm3 0h-2v2h2v-2z"/></symbol><symbol id="facebook" viewBox="0 0 24 24"><path d="M19 0h-14c-2.761 0-5 2.239-5 5v14c0 2.761 2.239 5 5 5h14c2.762 0 5-2.239 5-5v-14c0-2.761-2.238-5-5-5zm-3 7h-1.924c-.615 0-1.076.252-1.076.889v1.111h3l-.238 3h-2.762v8h-3v-8h-2v-3h2v-1.923c0-2.022 1.064-3.077 3.461-3.077h2.539v3z"/></symbol><symbol id="globe" viewBox="0 0 24 24"><path d="M13.144 8.171c-.035-.066.342-.102.409-.102.074.009-.196.452-.409.102zm-2.152-3.072l.108-.031c.064.055-.072.095-.051.136.086.155.021.248.008.332-.014.085-.104.048-.149.093-.053.066.258.075.262.085.011.033-.375.089-.304.171.096.136.824-.195.708-.176.225-.113.029-.125-.097-.19-.043-.215-.079-.547-.213-.68l.088-.102c-.206-.299-.36.362-.36.362zm13.008 6.901c0 6.627-5.373 12-12 12-6.628 0-12-5.373-12-12s5.372-12 12-12c6.627 0 12 5.373 12 12zm-8.31-5.371c-.006-.146-.19-.284-.382-.031-.135.174-.111.439-.184.557-.104.175.567.339.567.174.025-.277.732-.063.87-.025.248.069.643-.226.211-.381-.355-.13-.542-.269-.574-.523 0 0 .188-.176.106-.166-.218.027-.614.786-.614.395zm6.296 5.371c0-1.035-.177-2.08-.357-2.632-.058-.174-.189-.312-.359-.378-.256-.1-1.337.597-1.5.254-.107-.229-.324.146-.572.008-.12-.066-.454-.515-.605-.46-.309.111.474.964.688 1.076.201-.152.852-.465.992-.038.268.804-.737 1.685-1.251 2.149-.768.694-.624-.449-1.147-.852-.275-.211-.272-.66-.55-.815-.124-.07-.693-.725-.688-.813l-.017.166c-.094.071-.294-.268-.315-.321 0 .295.48.765.639 1.001.271.405.416.995.748 1.326.178.178.858.914 1.035.898.193-.017.803-.458.911-.433.644.152-1.516 3.205-1.721 3.583-.169.317.138 1.101.113 1.476-.029.433-.37.573-.693.809-.346.253-.265.745-.556.925-.517.318-.889 1.353-1.623 1.348-.216-.001-1.14.36-1.261.007-.094-.256-.22-.45-.353-.703-.13-.248-.015-.505-.173-.724-.109-.152-.475-.497-.508-.677-.002-.155.117-.626.28-.708.229-.117.044-.458.016-.656-.048-.354-.267-.646-.53-.851-.389-.299-.188-.537-.097-.964 0-.204-.124-.472-.398-.392-.564.164-.393-.44-.804-.413-.296.021-.538.209-.813.292-.346.104-.7-.082-1.042-.125-1.407-.178-1.866-1.786-1.499-2.946.037-.19-.114-.542-.048-.689.158-.352.48-.747.762-1.014.158-.15.361-.112.547-.229.287-.181.291-.553.572-.781.4-.325.946-.318 1.468-.388.278-.037 1.336-.266 1.503-.06 0 .038.191.604-.019.572.433.023 1.05.749 1.461.579.211-.088.134-.736.567-.423.262.188 1.436.272 1.68.069.15-.124.234-.93.052-1.021.116.115-.611.124-.679.098-.12-.044-.232.114-.425.025.116.055-.646-.354-.218-.667-.179.131-.346-.037-.539.107-.133.108.062.18-.128.274-.302.153-.53-.525-.644-.602-.116-.076-1.014-.706-.77-.295l.789.785c-.039.025-.207-.286-.207-.059.053-.135.02.579-.104.347-.055-.089.09-.139.006-.268 0-.085-.228-.168-.272-.226-.125-.155-.457-.497-.637-.579-.05-.023-.764.087-.824.11-.07.098-.13.201-.179.311-.148.055-.287.126-.419.214l-.157.353c-.068.061-.765.291-.769.3.029-.075-.487-.171-.453-.321.038-.165.213-.68.168-.868-.048-.197 1.074.284 1.146-.235.029-.225.046-.487-.313-.525.068.008.695-.246.799-.36.146-.168.481-.442.724-.442.284 0 .223-.413.354-.615.131.053-.07.376.087.507-.01-.103.445.057.489.033.104-.054.684-.022.594-.294-.1-.277.051-.195.181-.253-.022.009.34-.619.402-.413-.043-.212-.421.074-.553.063-.305-.024-.176-.52-.061-.665.089-.115-.243-.256-.247-.036-.006.329-.312.627-.241 1.064.108.659-.735-.159-.809-.114-.28.17-.509-.214-.364-.444.148-.235.505-.224.652-.476.104-.178.225-.385.385-.52.535-.449.683-.09 1.216-.041.521.048.176.124.104.324-.069.19.286.258.409.099.07-.092.229-.323.298-.494.089-.222.901-.197.334-.536-.374-.223-2.004-.672-3.096-.672-.236 0-.401.263-.581.412-.356.295-1.268.874-1.775.698-.519-.179-1.63.66-1.808.666-.065.004.004-.634.358-.681-.153.023 1.247-.707 1.209-.859-.046-.18-2.799.822-2.676 1.023.059.092.299.092-.016.294-.18.109-.372.801-.541.801-.505.221-.537-.435-1.099.409l-.894.36c-1.328 1.411-2.247 3.198-2.58 5.183-.013.079.334.226.379.28.112.134.112.712.167.901.138.478.479.744.74 1.179.154.259.41.914.329 1.186.108-.178 1.07.815 1.246 1.022.414.487.733 1.077.061 1.559-.217.156.33 1.129.048 1.368l-.361.093c-.356.219-.195.756.021.982 1.818 1.901 4.38 3.087 7.22 3.087 5.517 0 9.989-4.472 9.989-9.989zm-11.507-6.357c.125-.055.293-.053.311-.22.015-.148.044-.046.08-.1.035-.053-.067-.138-.11-.146-.064-.014-.108.069-.149.104l-.072.019-.068.087.008.048-.087.106c-.085.084.002.139.087.102z"/></symbol><symbol id="star" viewBox="0 0 24 24"><path d="M12 .288l2.833 8.718h9.167l-7.417 5.389 2.833 8.718-7.416-5.388-7.417 5.388 2.833-8.718-7.416-5.389h9.167z"/></symbol><symbol id="map" viewBox="0 0 24 24"><path d="M6.57 13.41c-.373 0-.741-.066-1.093-.195l.407-1.105c.221.081.451.122.686.122.26 0 .514-.05.754-.148l.447 1.09c-.382.157-.786.236-1.201.236zm8.67-.783l-1.659-.945.583-1.024 1.66.945-.584 1.024zm-6.455-.02l-.605-1.011 1.639-.981.605 1.011-1.639.981zm3.918-1.408c-.243-.101-.5-.153-.764-.153-.23 0-.457.04-.674.119l-.401-1.108c.346-.125.708-.188 1.075-.189.42 0 .83.082 1.217.244l-.453 1.087zm-8.734-.163c-.535 0-.969.433-.969.968 0 .535.434.968.969.968.535 0 .969-.434.969-.968-.001-.535-.434-.968-.969-.968zm13.576-7.036l-5.545-4-5.545 4-6.455-4v20l6.455 4 5.545-4 5.545 4 6.455-4v-20l-6.455 4zm4.455 14.887l-4 2.479v-4.366h-1v4.141l-4-2.885v-4.256h-2v4.255l-4 2.885v-5.14h-1v5.365l-4-2.479v-15.294l4 2.479v2.929h1v-2.927l4-2.886v3.813h2v-3.813l4 2.886v1.927h1v-1.929l4-2.479v15.295zm-1.328-4.871l-1.296-1.274 1.273-1.293-.708-.702-1.272 1.295-1.294-1.272-.703.702 1.296 1.276-1.273 1.296.703.703 1.277-1.298 1.295 1.275.702-.708z"/></symbol><symbol id="user" viewBox="0 0 24 24"><path d="M17.997 18h-11.995l-.002-.623c0-1.259.1-1.986 1.588-2.33 1.684-.389 3.344-.736 2.545-2.209-2.366-4.363-.674-6.838 1.866-6.838 2.491 0 4.226 2.383 1.866 6.839-.775 1.464.826 1.812 2.545 2.209 1.49.344 1.589 1.072 1.589 2.333l-.002.619zm4.811-2.214c-1.29-.298-2.49-.559-1.909-1.657 1.769-3.342.469-5.129-1.4-5.129-1.265 0-2.248.817-2.248 2.324 0 3.903 2.268 1.77 2.246 6.676h4.501l.002-.463c0-.946-.074-1.493-1.192-1.751zm-22.806 2.214h4.501c-.021-4.906 2.246-2.772 2.246-6.676 0-1.507-.983-2.324-2.248-2.324-1.869 0-3.169 1.787-1.399 5.129.581 1.099-.619 1.359-1.909 1.657-1.119.258-1.193.805-1.193 1.751l.002.463z"/></symbol><symbol id="tumblr" viewBox="0 0 24 24"><path d="M19 0h-14c-2.761 0-5 2.239-5 5v14c0 2.761 2.239 5 5 5h14c2.762 0 5-2.239 5-5v-14c0-2.761-2.238-5-5-5zm-1.105 18.739c-.524.691-2.29 1.261-3.889 1.261-3.979 0-6.006-1.466-6.006-4.573v-4.104h-1.933l-.067-.067v-3.16l.045-.064.178-.059c1.597-.534 2.624-1.432 2.851-3.284.055-.447.431-.689.757-.689h4.767l.066.067v3.211l.066.067h2.535l.068.067v3.844l-.068.067h-2.545l-.067.067v3.81c.002.103.006.414.109.414h2.182l.064.046.992 2.941-.105.138zm-1.309-2.278l.664 1.967-.016.07c-.5.48-1.703.837-2.686.854l-.111.001c-3.232 0-3.788-2.468-3.788-3.926v-4.692l-.066-.067h-1.854l-.067-.067-.016-2.041.042-.062c1.67-.65 2.604-1.73 2.849-3.729.014-.111.105-.114.106-.114h2.298l.067.067v3.211l.068.067h2.535l.066.067v2.534l-.066.067h-2.547l-.064.067v4.47c.016.959.477 1.445 1.377 1.445.362 0 .744-.084 1.123-.229l.086.04z"/></symbol><symbol id="linux" viewBox="0 0 24 24"><path d="M20.581 19.049c-.55-.446-.336-1.431-.907-1.917.553-3.365-.997-6.331-2.845-8.232-1.551-1.595-1.051-3.147-1.051-4.49 0-2.146-.881-4.41-3.55-4.41-2.853 0-3.635 2.38-3.663 3.738-.068 3.262.659 4.11-1.25 6.484-2.246 2.793-2.577 5.579-2.07 7.057-.237.276-.557.582-1.155.835-1.652.72-.441 1.925-.898 2.78-.13.243-.192.497-.192.74 0 .75.596 1.399 1.679 1.302 1.461-.13 2.809.905 3.681.905.77 0 1.402-.438 1.696-1.041 1.377-.339 3.077-.296 4.453.059.247.691.917 1.141 1.662 1.141 1.631 0 1.945-1.849 3.816-2.475.674-.225 1.013-.879 1.013-1.488 0-.39-.139-.761-.419-.988zm-9.147-10.465c-.319 0-.583-.258-1-.568-.528-.392-1.065-.618-1.059-1.03 0-.283.379-.37.869-.681.526-.333.731-.671 1.249-.671.53 0 .69.268 1.41.579.708.307 1.201.427 1.201.773 0 .355-.741.609-1.158.868-.613.378-.928.73-1.512.73zm1.665-5.215c.882.141.981 1.691.559 2.454l-.355-.145c.184-.543.181-1.437-.435-1.494-.391-.036-.643.48-.697.922-.153-.064-.32-.11-.523-.127.062-.923.658-1.737 1.451-1.61zm-3.403.331c.676-.168 1.075.618 1.078 1.435l-.31.19c-.042-.343-.195-.897-.579-.779-.411.128-.344 1.083-.115 1.279l-.306.17c-.42-.707-.419-2.133.232-2.295zm-2.115 19.243c-1.963-.893-2.63-.69-3.005-.69-.777 0-1.031-.579-.739-1.127.248-.465.171-.952.11-1.343-.094-.599-.111-.794.478-1.052.815-.346 1.177-.791 1.447-1.124.758-.937 1.523.537 2.15 1.85.407.851 1.208 1.282 1.455 2.225.227.871-.71 1.801-1.896 1.261zm6.987-1.874c-1.384.673-3.147.982-4.466.299-.195-.563-.507-.927-.843-1.293.539-.142.939-.814.46-1.489-.511-.721-1.555-1.224-2.61-2.04-.987-.763-1.299-2.644.045-4.746-.655 1.862-.272 3.578.057 4.069.068-.988.146-2.638 1.496-4.615.681-.998.691-2.316.706-3.14l.62.424c.456.337.838.708 1.386.708.81 0 1.258-.466 1.882-.853.244-.15.613-.302.923-.513.52 2.476 2.674 5.454 2.795 7.15.501-1.032-.142-3.514-.142-3.514.842 1.285.909 2.356.946 3.67.589.241 1.221.869 1.279 1.696l-.245-.028c-.126-.919-2.607-2.269-2.83-.539-1.19.181-.757 2.066-.997 3.288-.11.559-.314 1.001-.462 1.466zm4.846-.041c-.985.38-1.65 1.187-2.107 1.688-.88.966-2.044.503-2.168-.401-.131-.966.36-1.493.572-2.574.193-.987-.023-2.506.431-2.668.295 1.753 2.066 1.016 2.47.538.657 0 .712.222.859.837.092.385.219.709.578 1.09.418.447.29 1.133-.635 1.49zm-8-13.006c-.651 0-1.138-.433-1.534-.769-.203-.171.05-.487.253-.315.387.328.777.675 1.281.675.607 0 1.142-.519 1.867-.805.247-.097.388.285.143.382-.704.277-1.269.832-2.01.832z"/></symbol><symbol id="twitter" viewBox="0 0 24 24"><path d="M19 0h-14c-2.761 0-5 2.239-5 5v14c0 2.761 2.239 5 5 5h14c2.762 0 5-2.239 5-5v-14c0-2.761-2.238-5-5-5zm-.139 9.237c.209 4.617-3.234 9.765-9.33 9.765-1.854 0-3.579-.543-5.032-1.475 1.742.205 3.48-.278 4.86-1.359-1.437-.027-2.649-.976-3.066-2.28.515.098 1.021.069 1.482-.056-1.579-.317-2.668-1.739-2.633-3.26.442.246.949.394 1.486.411-1.461-.977-1.875-2.907-1.016-4.383 1.619 1.986 4.038 3.293 6.766 3.43-.479-2.053 1.08-4.03 3.199-4.03.943 0 1.797.398 2.395 1.037.748-.147 1.451-.42 2.086-.796-.246.767-.766 1.41-1.443 1.816.664-.08 1.297-.256 1.885-.517-.439.656-.996 1.234-1.639 1.697z"/></symbol><symbol id="wrench" viewBox="0 0 24 24"><path d="M4.5.257l3.771 3.771c.409 1.889-2.33 4.66-4.242 4.242l-3.771-3.77c-.172.584-.258 1.188-.258 1.792 0 1.602.607 3.202 1.83 4.426 1.351 1.351 3.164 1.958 4.931 1.821.933-.072 1.852.269 2.514.931l9.662 9.662c.578.578 1.337.868 2.097.868 1.661 0 3.001-1.364 2.966-3.03-.016-.737-.306-1.47-.868-2.033l-9.662-9.663c-.662-.661-1.002-1.581-.931-2.514.137-1.767-.471-3.58-1.82-4.93-1.225-1.224-2.825-1.83-4.428-1.83-.603 0-1.207.086-1.791.257zm17.5 20.743c0 .553-.447 1-1 1-.553 0-1-.448-1-1s.447-1 1-1 1 .447 1 1z"/></symbol><symbol id="vk" viewBox="0 0 24 24"><path d="M19 0h-14c-2.761 0-5 2.239-5 5v14c0 2.761 2.239 5 5 5h14c2.762 0 5-2.239 5-5v-14c0-2.761-2.238-5-5-5zm.25 16.996h-2.134c-1.205 0-1.409-.687-2.401-1.679-.897-.897-1.395-.209-1.374 1.068.006.339-.161.611-.566.611-1.264 0-3.08.178-4.918-1.806-1.883-2.033-3.857-6.111-3.857-6.513 0-.237.196-.344.524-.344h2.17c.574 0 .623.284.783.649.667 1.521 2.265 4.574 2.69 2.87.244-.978.344-3.245-.703-3.44-.594-.11.452-.746 1.968-.746.377 0 .786.041 1.205.137.769.179.771.523.761 1.026-.039 1.903-.269 3.184.233 3.507.479.31 1.739-1.717 2.403-3.281.183-.433.219-.722.734-.722h2.654c1.39 0-.182 1.997-1.383 3.557-.968 1.255-.916 1.28.209 2.324.803.744 1.75 1.76 1.75 2.336.002.272-.21.446-.748.446z"/></symbol><symbol id="youtube" viewBox="0 0 24 24"><path d="M9.279 13.52h-.939v5.027h-.908v-5.027h-.94v-.854h2.788v.854zm5.395 1.721v2.406c0 .537-.2.954-.736.954-.296 0-.541-.108-.767-.388v.333h-.813v-5.88h.813v1.893c.183-.222.429-.405.718-.405.59 0 .785.499.785 1.087zm-.83.049c0-.146-.027-.257-.086-.333-.098-.129-.279-.143-.42-.071l-.167.132v2.703l.19.153c.132.066.324.071.413-.045.046-.061.069-.161.069-.299v-2.24zm-2.347-5.859c.229 0 .354-.183.354-.431v-2.119c0-.255-.111-.434-.371-.434-.237 0-.353.185-.353.434v2.119c.001.24.137.431.37.431zm-.733 8.07c-.099.123-.317.325-.475.325-.172 0-.215-.118-.215-.292v-3.325h-.805v3.626c0 .88.597.885 1.031.636.16-.092.315-.227.464-.403v.479h.807v-4.338h-.807v3.292zm13.236-12.501v14c0 2.761-2.238 5-5 5h-14c-2.761 0-5-2.239-5-5v-14c0-2.761 2.239-5 5-5h14c2.762 0 5 2.239 5 5zm-10.566 4.427c0 .45.137.813.592.813.256 0 .611-.133.979-.569v.503h.847v-4.554h-.847v3.457c-.104.129-.333.341-.498.341-.182 0-.226-.124-.226-.307v-3.491h-.847v3.807zm-3.177-2.621v2.233c0 .803.419 1.22 1.24 1.22.682 0 1.218-.456 1.218-1.22v-2.233c0-.713-.531-1.224-1.218-1.224-.745 0-1.24.493-1.24 1.224zm-3.155-2.806l1.135 3.67v2.504h.953v-2.504l1.11-3.67h-.969l-.611 2.468-.658-2.468h-.96zm11.564 11.667c-.014-2.978-.232-4.116-2.111-4.245-1.734-.118-7.377-.118-9.109 0-1.876.128-2.098 1.262-2.111 4.245.014 2.978.233 4.117 2.111 4.245 1.732.118 7.375.118 9.109 0 1.877-.129 2.097-1.262 2.111-4.245zm-1.011-.292v1.104h-1.542v.818c0 .325.027.607.352.607.34 0 .36-.229.36-.607v-.301h.83v.326c0 .836-.358 1.342-1.208 1.342-.771 0-1.164-.561-1.164-1.342v-1.947c0-.753.497-1.275 1.225-1.275.773-.001 1.147.491 1.147 1.275zm-.83-.008c0-.293-.062-.508-.353-.508-.299 0-.359.21-.359.508v.439h.712v-.439z"/></symbol></svg>